<?xml version="1.0" encoding="utf-8"?>
<svg style="height:500px;width:800px;font-size:16px">
  <text x="20" y="20">00:10:01</text>
  <rect x="0" y="20" width="118" height="20"
    fill="white" stroke="black" />
  <text x="40" y="40">00:20:01</text>
  <rect x="0" y="40" width="0" height="20"
    fill="white" stroke="black" />
  <text x="60" y="60">00:30:01</text>
  <rect x="0" y="60" width="1" height="20"
    fill="white" stroke="black" />
  <text x="80" y="80">00:40:01</text>
  <rect x="0" y="80" width="0" height="20"
    fill="white" stroke="black" />
  <text x="100" y="100">00:50:01</text>
  <rect x="0" y="100" width="0" height="20"
    fill="white" stroke="black" />
  <text x="120" y="120">01:00:01</text>
  <rect x="0" y="120" width="0" height="20"
    fill="white" stroke="black" />
  <text x="140" y="140">01:10:01</text>
  <rect x="0" y="140" width="117" height="20"
    fill="white" stroke="black" />
  <text x="160" y="160">01:20:01</text>
  <rect x="0" y="160" width="0" height="20"
    fill="white" stroke="black" />
  <text x="180" y="180">01:30:01</text>
  <rect x="0" y="180" width="0" height="20"
    fill="white" stroke="black" />
  <text x="200" y="200">01:40:01</text>
  <rect x="0" y="200" width="0" height="20"
    fill="white" stroke="black" />
  <text x="220" y="220">01:50:01</text>
  <rect x="0" y="220" width="0" height="20"
    fill="white" stroke="black" />
  <text x="240" y="240">02:00:01</text>
  <rect x="0" y="240" width="0" height="20"
    fill="white" stroke="black" />
  <text x="260" y="260">02:10:01</text>
  <rect x="0" y="260" width="111" height="20"
    fill="white" stroke="black" />
  <text x="280" y="280">02:20:01</text>
  <rect x="0" y="280" width="2" height="20"
    fill="white" stroke="black" />
  <text x="300" y="300">02:30:01</text>
  <rect x="0" y="300" width="0" height="20"
    fill="white" stroke="black" />
  <text x="320" y="320">02:40:01</text>
  <rect x="0" y="320" width="5" height="20"
    fill="white" stroke="black" />
  <text x="340" y="340">02:50:01</text>
  <rect x="0" y="340" width="0" height="20"
    fill="white" stroke="black" />
  <text x="360" y="360">03:00:01</text>
  <rect x="0" y="360" width="8" height="20"
    fill="white" stroke="black" />
  <text x="380" y="380">03:10:02</text>
  <rect x="0" y="380" width="130" height="20"
    fill="white" stroke="black" />
  <text x="400" y="400">03:20:01</text>
  <rect x="0" y="400" width="5" height="20"
    fill="white" stroke="black" />
  <text x="420" y="420">03:30:01</text>
  <rect x="0" y="420" width="0" height="20"
    fill="white" stroke="black" />
  <text x="440" y="440">03:40:01</text>
  <rect x="0" y="440" width="0" height="20"
    fill="white" stroke="black" />
  <text x="460" y="460">03:50:01</text>
  <rect x="0" y="460" width="0" height="20"
    fill="white" stroke="black" />
  <text x="480" y="480">04:00:01</text>
  <rect x="0" y="480" width="0" height="20"
    fill="white" stroke="black" />
  <text x="500" y="500">04:10:01</text>
  <rect x="0" y="500" width="109" height="20"
    fill="white" stroke="black" />
  <text x="520" y="520">04:20:01</text>
  <rect x="0" y="520" width="2" height="20"
    fill="white" stroke="black" />
  <text x="540" y="540">04:30:01</text>
  <rect x="0" y="540" width="0" height="20"
    fill="white" stroke="black" />
  <text x="560" y="560">04:40:01</text>
  <rect x="0" y="560" width="0" height="20"
    fill="white" stroke="black" />
  <text x="580" y="580">04:50:01</text>
  <rect x="0" y="580" width="0" height="20"
    fill="white" stroke="black" />
  <text x="600" y="600">05:00:01</text>
  <rect x="0" y="600" width="0" height="20"
    fill="white" stroke="black" />
  <text x="620" y="620">05:10:02</text>
  <rect x="0" y="620" width="120" height="20"
    fill="white" stroke="black" />
  <text x="640" y="640">05:20:01</text>
  <rect x="0" y="640" width="3" height="20"
    fill="white" stroke="black" />
  <text x="660" y="660">05:30:01</text>
  <rect x="0" y="660" width="0" height="20"
    fill="white" stroke="black" />
  <text x="680" y="680">05:40:01</text>
  <rect x="0" y="680" width="1" height="20"
    fill="white" stroke="black" />
  <text x="700" y="700">05:50:01</text>
  <rect x="0" y="700" width="1" height="20"
    fill="white" stroke="black" />
  <text x="720" y="720">06:00:01</text>
  <rect x="0" y="720" width="42" height="20"
    fill="white" stroke="black" />
  <text x="740" y="740">06:10:02</text>
  <rect x="0" y="740" width="113" height="20"
    fill="white" stroke="black" />
  <text x="760" y="760">06:20:01</text>
  <rect x="0" y="760" width="0" height="20"
    fill="white" stroke="black" />
  <text x="780" y="780">06:30:01</text>
  <rect x="0" y="780" width="0" height="20"
    fill="white" stroke="black" />
  <text x="800" y="800">06:40:01</text>
  <rect x="0" y="800" width="0" height="20"
    fill="white" stroke="black" />
  <text x="820" y="820">06:50:01</text>
  <rect x="0" y="820" width="7" height="20"
    fill="white" stroke="black" />
  <text x="840" y="840">07:00:01</text>
  <rect x="0" y="840" width="0" height="20"
    fill="white" stroke="black" />
  <text x="860" y="860">07:10:01</text>
  <rect x="0" y="860" width="139" height="20"
    fill="white" stroke="black" />
  <text x="880" y="880">07:20:01</text>
  <rect x="0" y="880" width="24" height="20"
    fill="white" stroke="black" />
  <text x="900" y="900">07:30:01</text>
  <rect x="0" y="900" width="0" height="20"
    fill="white" stroke="black" />
  <text x="920" y="920">07:40:01</text>
  <rect x="0" y="920" width="0" height="20"
    fill="white" stroke="black" />
  <text x="940" y="940">07:50:01</text>
  <rect x="0" y="940" width="0" height="20"
    fill="white" stroke="black" />
  <text x="960" y="960">08:00:01</text>
  <rect x="0" y="960" width="0" height="20"
    fill="white" stroke="black" />
  <text x="980" y="980">08:10:01</text>
  <rect x="0" y="980" width="125" height="20"
    fill="white" stroke="black" />
  <text x="1000" y="1000">08:20:02</text>
  <rect x="0" y="1000" width="0" height="20"
    fill="white" stroke="black" />
  <text x="1020" y="1020">08:30:01</text>
  <rect x="0" y="1020" width="1" height="20"
    fill="white" stroke="black" />
  <text x="1040" y="1040">08:40:01</text>
  <rect x="0" y="1040" width="0" height="20"
    fill="white" stroke="black" />
  <text x="1060" y="1060">08:50:01</text>
  <rect x="0" y="1060" width="1" height="20"
    fill="white" stroke="black" />
  <text x="1080" y="1080">09:00:01</text>
  <rect x="0" y="1080" width="3" height="20"
    fill="white" stroke="black" />
  <text x="1100" y="1100">09:10:01</text>
  <rect x="0" y="1100" width="133" height="20"
    fill="white" stroke="black" />
  <text x="1120" y="1120">09:20:01</text>
  <rect x="0" y="1120" width="0" height="20"
    fill="white" stroke="black" />
  <text x="1140" y="1140">09:30:01</text>
  <rect x="0" y="1140" width="5" height="20"
    fill="white" stroke="black" />
  <text x="1160" y="1160">09:40:01</text>
  <rect x="0" y="1160" width="21" height="20"
    fill="white" stroke="black" />
  <text x="1180" y="1180">09:50:01</text>
  <rect x="0" y="1180" width="0" height="20"
    fill="white" stroke="black" />
  <text x="1200" y="1200">10:00:01</text>
  <rect x="0" y="1200" width="0" height="20"
    fill="white" stroke="black" />
  <text x="1220" y="1220">10:10:02</text>
  <rect x="0" y="1220" width="122" height="20"
    fill="white" stroke="black" />
  <text x="1240" y="1240">10:20:01</text>
  <rect x="0" y="1240" width="0" height="20"
    fill="white" stroke="black" />
  <text x="1260" y="1260">10:30:02</text>
  <rect x="0" y="1260" width="5" height="20"
    fill="white" stroke="black" />
  <text x="1280" y="1280">10:40:01</text>
  <rect x="0" y="1280" width="0" height="20"
    fill="white" stroke="black" />
  <text x="1300" y="1300">10:50:01</text>
  <rect x="0" y="1300" width="0" height="20"
    fill="white" stroke="black" />
  <text x="1320" y="1320">11:00:01</text>
  <rect x="0" y="1320" width="6" height="20"
    fill="white" stroke="black" />
  <text x="1340" y="1340">11:10:03</text>
  <rect x="0" y="1340" width="115" height="20"
    fill="white" stroke="black" />
  <text x="1360" y="1360">11:20:01</text>
  <rect x="0" y="1360" width="0" height="20"
    fill="white" stroke="black" />
  <text x="1380" y="1380">11:30:01</text>
  <rect x="0" y="1380" width="6" height="20"
    fill="white" stroke="black" />
  <text x="1400" y="1400">11:40:01</text>
  <rect x="0" y="1400" width="0" height="20"
    fill="white" stroke="black" />
  <text x="1420" y="1420">11:50:01</text>
  <rect x="0" y="1420" width="34" height="20"
    fill="white" stroke="black" />
  <text x="1440" y="1440">12:00:01</text>
  <rect x="0" y="1440" width="0" height="20"
    fill="white" stroke="black" />
  <text x="1460" y="1460">12:10:02</text>
  <rect x="0" y="1460" width="110" height="20"
    fill="white" stroke="black" />
  <text x="1480" y="1480">12:20:01</text>
  <rect x="0" y="1480" width="0" height="20"
    fill="white" stroke="black" />
  <text x="1500" y="1500">12:30:01</text>
  <rect x="0" y="1500" width="13" height="20"
    fill="white" stroke="black" />
  <text x="1520" y="1520">12:40:01</text>
  <rect x="0" y="1520" width="0" height="20"
    fill="white" stroke="black" />
  <text x="1540" y="1540">12:50:01</text>
  <rect x="0" y="1540" width="0" height="20"
    fill="white" stroke="black" />
  <text x="1560" y="1560">13:00:01</text>
  <rect x="0" y="1560" width="2" height="20"
    fill="white" stroke="black" />
  <text x="1580" y="1580">13:10:02</text>
  <rect x="0" y="1580" width="115" height="20"
    fill="white" stroke="black" />
  <text x="1600" y="1600">13:20:01</text>
  <rect x="0" y="1600" width="0" height="20"
    fill="white" stroke="black" />
  <text x="1620" y="1620">13:30:01</text>
  <rect x="0" y="1620" width="5" height="20"
    fill="white" stroke="black" />
  <text x="1640" y="1640">13:40:01</text>
  <rect x="0" y="1640" width="8" height="20"
    fill="white" stroke="black" />
  <text x="1660" y="1660">13:50:01</text>
  <rect x="0" y="1660" width="0" height="20"
    fill="white" stroke="black" />
  <text x="1680" y="1680">14:00:01</text>
  <rect x="0" y="1680" width="0" height="20"
    fill="white" stroke="black" />
  <text x="1700" y="1700">14:10:01</text>
  <rect x="0" y="1700" width="112" height="20"
    fill="white" stroke="black" />
  <text x="1720" y="1720">14:20:01</text>
  <rect x="0" y="1720" width="0" height="20"
    fill="white" stroke="black" />
  <text x="1740" y="1740">14:30:01</text>
  <rect x="0" y="1740" width="2" height="20"
    fill="white" stroke="black" />
  <text x="1760" y="1760">14:40:01</text>
  <rect x="0" y="1760" width="16" height="20"
    fill="white" stroke="black" />
  <text x="1780" y="1780">14:50:01</text>
  <rect x="0" y="1780" width="0" height="20"
    fill="white" stroke="black" />
  <text x="1800" y="1800">15:00:01</text>
  <rect x="0" y="1800" width="0" height="20"
    fill="white" stroke="black" />
  <text x="1820" y="1820">15:10:01</text>
  <rect x="0" y="1820" width="129" height="20"
    fill="white" stroke="black" />
  <text x="1840" y="1840">15:20:01</text>
  <rect x="0" y="1840" width="5" height="20"
    fill="white" stroke="black" />
  <text x="1860" y="1860">15:30:01</text>
  <rect x="0" y="1860" width="8" height="20"
    fill="white" stroke="black" />
  <text x="1880" y="1880">15:40:01</text>
  <rect x="0" y="1880" width="11" height="20"
    fill="white" stroke="black" />
  <text x="1900" y="1900">15:50:02</text>
  <rect x="0" y="1900" width="0" height="20"
    fill="white" stroke="black" />
  <text x="1920" y="1920">16:00:01</text>
  <rect x="0" y="1920" width="0" height="20"
    fill="white" stroke="black" />
  <text x="1940" y="1940">16:10:01</text>
  <rect x="0" y="1940" width="127" height="20"
    fill="white" stroke="black" />
  <text x="1960" y="1960">16:20:01</text>
  <rect x="0" y="1960" width="0" height="20"
    fill="white" stroke="black" />
  <text x="1980" y="1980">16:30:01</text>
  <rect x="0" y="1980" width="5" height="20"
    fill="white" stroke="black" />
  <text x="2000" y="2000">16:40:01</text>
  <rect x="0" y="2000" width="10" height="20"
    fill="white" stroke="black" />
  <text x="2020" y="2020">16:50:01</text>
  <rect x="0" y="2020" width="0" height="20"
    fill="white" stroke="black" />
  <text x="2040" y="2040">17:00:01</text>
  <rect x="0" y="2040" width="0" height="20"
    fill="white" stroke="black" />
  <text x="2060" y="2060">17:10:01</text>
  <rect x="0" y="2060" width="112" height="20"
    fill="white" stroke="black" />
  <text x="2080" y="2080">17:20:01</text>
  <rect x="0" y="2080" width="0" height="20"
    fill="white" stroke="black" />
  <text x="2100" y="2100">17:30:01</text>
  <rect x="0" y="2100" width="0" height="20"
    fill="white" stroke="black" />
  <text x="2120" y="2120">17:40:01</text>
  <rect x="0" y="2120" width="0" height="20"
    fill="white" stroke="black" />
  <text x="2140" y="2140">17:50:01</text>
  <rect x="0" y="2140" width="0" height="20"
    fill="white" stroke="black" />
  <text x="2160" y="2160">18:00:01</text>
  <rect x="0" y="2160" width="0" height="20"
    fill="white" stroke="black" />
  <text x="2180" y="2180">18:10:01</text>
  <rect x="0" y="2180" width="119" height="20"
    fill="white" stroke="black" />
</svg>
